<svg width="90" height="98" viewBox="0 0 90 98" fill="none" xmlns="http://www.w3.org/2000/svg">
<path d="M76.0236 49.5795L83.3954 62.3347L67.6599 59.3942L67.167 71.8862L54.3326 63.6212L55.9709 94.4751C55.3387 96.2408 53.8362 97.1957 51.4633 97.3397L47.3613 90.7349L38.9073 92.8126C37.4247 91.8594 36.3488 90.6964 35.6796 89.3236C35.0104 87.9509 34.8865 86.6759 35.3079 85.4987L34.2321 65.9259L21.425 79.4678C21.0035 80.6449 20.123 81.4836 18.7833 81.9836C17.4436 82.4836 15.9366 82.5246 14.2624 82.1064L9.37158 74.2316L2.28113 75.9741C0.636205 74.0848 0.12983 72.2572 0.762003 70.4914L21.0781 49.1749L6.57711 45.565L13.9577 36.0651L0.635872 26.3826L13.9271 22.6038L6.55531 9.84862L22.2621 12.8693L22.755 0.377361L36.5794 9.35074L44.871 0.43215L53.1973 12.9528L67.0407 10.063L67.6815 22.862L83.3449 26.6986L75.9643 36.1984L89.3149 45.8007L76.0236 49.5795ZM50.4925 20.6813C44.7887 18.2035 39.3687 17.5957 34.2327 18.8579C29.0967 20.1201 25.7672 22.8782 24.2442 27.1321C22.7212 31.386 23.4454 35.905 26.4167 40.6892C29.3881 45.4734 33.7256 49.1044 39.4295 51.5823C45.1333 54.0601 50.5533 54.6679 55.6893 53.4057C60.8253 52.1435 64.1548 49.3854 65.6778 45.1315C67.2007 40.8776 66.4766 36.3585 63.5053 31.5744C60.5339 26.7902 56.1964 23.1591 50.4925 20.6813Z" fill="#252734"/>
</svg>
