<svg width="121" height="123" viewBox="0 0 121 123" fill="none" xmlns="http://www.w3.org/2000/svg">
<ellipse cx="60.2119" cy="61.9512" rx="60" ry="61" fill="#FFC25C"/>
<path d="M44.2124 53.9276L60.2124 64.091L76.2123 53.9276L60.2124 43.7642L44.2124 53.9276ZM80.2123 53.9276V74.2544C80.2123 75.3326 79.7909 76.3667 79.0407 77.1291C78.2906 77.8915 77.2732 78.3198 76.2123 78.3198H44.2124C43.1515 78.3198 42.1341 77.8915 41.384 77.1291C40.6338 76.3667 40.2124 75.3326 40.2124 74.2544V53.9276C40.2124 52.4437 40.9924 51.1631 42.1524 50.4517L60.2124 38.967L78.2723 50.4517C79.4323 51.1631 80.2123 52.4437 80.2123 53.9276Z" fill="black"/>
</svg>
