<svg width="120" height="123" viewBox="0 0 120 123" fill="none" xmlns="http://www.w3.org/2000/svg">
<ellipse cx="60" cy="61.7256" rx="60" ry="61" fill="#FFC25C"/>
<path d="M57.6329 50.0131L51.4505 42.0753C50.7377 41.1606 49.4311 41.1647 48.6032 42.0875L43.5191 47.7527C42.0059 49.4378 41.5728 51.9401 42.4482 53.9464C47.6778 65.9902 56.4104 75.717 67.231 81.5507C69.0329 82.5243 71.2808 82.0426 72.7939 80.3575L77.9256 74.6394C78.7571 73.7146 78.7589 72.253 77.9292 71.4603L70.7654 64.6202C70.0161 63.9047 68.852 63.9982 68.1009 64.8357L65.6082 67.6123C65.4806 67.7611 65.3126 67.8592 65.13 67.8915C64.9474 67.9238 64.7604 67.8886 64.5976 67.7912C60.523 65.1814 57.1431 61.4171 54.8021 56.8816C54.7144 56.7002 54.6827 56.4918 54.7118 56.2884C54.7408 56.085 54.829 55.8978 54.9629 55.7555L57.4483 52.989C58.2013 52.1474 58.2835 50.8465 57.6329 50.0111V50.0131Z" fill="black"/>
</svg>
